<svg width="37" height="36" viewBox="0 0 37 36" fill="none" xmlns="http://www.w3.org/2000/svg">
  <path d="M16.5 18.5347V4.45155C16.5 3.64988 15.8501 3 15.0485 3C14.364 3 13.7726 3.47814 13.6292 4.1474L10.5437 18.5464C10.5147 18.6815 10.4672 18.812 10.4026 18.934L4.91569 29.2982C4.38681 30.2972 5.11101 31.5 6.24138 31.5H12.3042C13.0038 31.5 13.6106 31.0163 13.7665 30.3342L16.1102 20.0804L16.4395 18.9566C16.4796 18.8195 16.5 18.6775 16.5 18.5347Z" stroke="currentColor" stroke-width="2.25" stroke-linecap="round" stroke-linejoin="round"/>
  <path d="M10.5 18.75L15.75 21" stroke="currentColor" stroke-width="2.25" stroke-linecap="round" stroke-linejoin="round"/>
  <path d="M21 18.5347V4.45155C21 3.64988 21.6499 3 22.4516 3C23.136 3 23.7275 3.47814 23.8709 4.1474L26.9563 18.5464C26.9853 18.6815 27.0328 18.812 27.0974 18.934L32.5844 29.2982C33.1132 30.2972 32.389 31.5 31.2587 31.5H25.1958C24.4962 31.5 23.8894 31.0163 23.7335 30.3342L21.3898 20.0804L21.0605 18.9566C21.0204 18.8195 21 18.6775 21 18.5347Z" stroke="currentColor" stroke-width="2.25" stroke-linecap="round" stroke-linejoin="round"/>
  <path d="M27 18.75L21.75 21" stroke="currentColor" stroke-width="2.25" stroke-linecap="round" stroke-linejoin="round"/>
</svg>
