<svg width="520" height="85" viewBox="0 0 520 85" fill="none" xmlns="http://www.w3.org/2000/svg">
<path d="M16.4628 83H1.64282L31.06 1.54571H45.6571L75.0742 83H60.0314L53.4571 64.1686H23.0371L16.4628 83ZM36.52 25.8371L27.2714 52.1343H49.3343L39.9743 25.8371C39.3057 23.72 38.5257 21.2686 38.3028 19.5971C37.9685 21.1571 37.3 23.6086 36.52 25.8371Z" fill="url(#paint0_linear_55_838)"/>
<path d="M76.2991 27.9543H84.2105V21.2686C84.2105 6.33714 92.0105 0.0971375 103.153 0.0971375C105.271 0.0971375 107.833 0.208565 110.173 0.65428V12.2428H105.382C99.2534 12.2428 97.6934 15.8086 97.6934 21.2686V27.9543H120.871V10.7943H134.465V27.9543H145.162V39.32H134.465V83H120.871V39.32H97.6934V83H84.2105V39.32H76.2991V27.9543Z" fill="url(#paint1_linear_55_838)"/>
<path d="M177.66 84.4486C161.28 84.4486 149.803 72.5257 149.803 55.4771C149.803 38.2057 161.057 26.2829 177.214 26.2829C193.706 26.2829 204.18 37.3143 204.18 54.4743V58.5971L162.728 58.7086C163.731 68.4028 168.857 73.3057 177.883 73.3057C185.348 73.3057 190.251 70.4086 191.811 65.1714H204.403C202.063 77.2057 192.034 84.4486 177.66 84.4486ZM177.326 37.4257C169.303 37.4257 164.4 41.7714 163.063 50.0171H190.697C190.697 42.44 185.46 37.4257 177.326 37.4257Z" fill="url(#paint2_linear_55_838)"/>
<path d="M249.603 27.7314V40.3228H244.588C234.783 40.3228 228.654 45.56 228.654 56.2571V83H215.06V28.0657H227.874L228.654 36.0886C230.994 30.6286 236.231 26.9514 243.586 26.9514C245.48 26.9514 247.374 27.1743 249.603 27.7314Z" fill="url(#paint3_linear_55_838)"/>
<path d="M275.073 1.54571V69.8514H309.17V83H260.81V1.54571H275.073Z" fill="url(#paint4_linear_55_838)"/>
<path d="M314.443 55.3657C314.443 38.2057 326.811 26.3943 343.86 26.3943C360.909 26.3943 373.277 38.2057 373.277 55.3657C373.277 72.5257 360.909 84.3371 343.86 84.3371C326.811 84.3371 314.443 72.5257 314.443 55.3657ZM328.037 55.3657C328.037 65.3943 334.5 72.1914 343.86 72.1914C353.22 72.1914 359.683 65.3943 359.683 55.3657C359.683 45.3371 353.22 38.54 343.86 38.54C334.5 38.54 328.037 45.3371 328.037 55.3657Z" fill="url(#paint5_linear_55_838)"/>
<path d="M402.229 83H388.634V39.32H378.049V27.9543H388.634V10.7943H402.229V27.9543H412.926V39.32H402.229V83Z" fill="url(#paint6_linear_55_838)"/>
<path d="M441.62 83H428.026V39.32H417.44V27.9543H428.026V10.7943H441.62V27.9543H452.317V39.32H441.62V83Z" fill="url(#paint7_linear_55_838)"/>
<path d="M456.993 55.3657C456.993 38.2057 469.362 26.3943 486.41 26.3943C503.459 26.3943 515.827 38.2057 515.827 55.3657C515.827 72.5257 503.459 84.3371 486.41 84.3371C469.362 84.3371 456.993 72.5257 456.993 55.3657ZM470.587 55.3657C470.587 65.3943 477.05 72.1914 486.41 72.1914C495.77 72.1914 502.233 65.3943 502.233 55.3657C502.233 45.3371 495.77 38.54 486.41 38.54C477.05 38.54 470.587 45.3371 470.587 55.3657Z" fill="url(#paint8_linear_55_838)"/>
<defs>
<linearGradient id="paint0_linear_55_838" x1="1.64282" y1="80.9339" x2="517.178" y2="17.5211" gradientUnits="userSpaceOnUse">
<stop stop-color="#FFAEAC"/>
<stop offset="1" stop-color="#FF7C78"/>
</linearGradient>
<linearGradient id="paint1_linear_55_838" x1="1.64282" y1="80.9339" x2="517.178" y2="17.5211" gradientUnits="userSpaceOnUse">
<stop stop-color="#FFAEAC"/>
<stop offset="1" stop-color="#FF7C78"/>
</linearGradient>
<linearGradient id="paint2_linear_55_838" x1="1.64282" y1="80.9339" x2="517.178" y2="17.5211" gradientUnits="userSpaceOnUse">
<stop stop-color="#FFAEAC"/>
<stop offset="1" stop-color="#FF7C78"/>
</linearGradient>
<linearGradient id="paint3_linear_55_838" x1="1.64282" y1="80.9339" x2="517.178" y2="17.5211" gradientUnits="userSpaceOnUse">
<stop stop-color="#FFAEAC"/>
<stop offset="1" stop-color="#FF7C78"/>
</linearGradient>
<linearGradient id="paint4_linear_55_838" x1="1.64282" y1="80.9339" x2="517.178" y2="17.5211" gradientUnits="userSpaceOnUse">
<stop stop-color="#FFAEAC"/>
<stop offset="1" stop-color="#FF7C78"/>
</linearGradient>
<linearGradient id="paint5_linear_55_838" x1="1.64282" y1="80.9339" x2="517.178" y2="17.5211" gradientUnits="userSpaceOnUse">
<stop stop-color="#FFAEAC"/>
<stop offset="1" stop-color="#FF7C78"/>
</linearGradient>
<linearGradient id="paint6_linear_55_838" x1="1.64282" y1="80.9339" x2="517.178" y2="17.5211" gradientUnits="userSpaceOnUse">
<stop stop-color="#FFAEAC"/>
<stop offset="1" stop-color="#FF7C78"/>
</linearGradient>
<linearGradient id="paint7_linear_55_838" x1="1.64282" y1="80.9339" x2="517.178" y2="17.5211" gradientUnits="userSpaceOnUse">
<stop stop-color="#FFAEAC"/>
<stop offset="1" stop-color="#FF7C78"/>
</linearGradient>
<linearGradient id="paint8_linear_55_838" x1="1.64282" y1="80.9339" x2="517.178" y2="17.5211" gradientUnits="userSpaceOnUse">
<stop stop-color="#FFAEAC"/>
<stop offset="1" stop-color="#FF7C78"/>
</linearGradient>
</defs>
</svg>
