<svg width="36" height="36" viewBox="0 0 36 36" fill="none" xmlns="http://www.w3.org/2000/svg">
<path d="M2.25 4.5H4.875L6 9M6 9L9.75 24H29.25L33 9H6Z" stroke="#222222" stroke-width="2.25" stroke-linecap="round" stroke-linejoin="round"/>
<path d="M9.75 31.5C10.9926 31.5 12 30.4926 12 29.25C12 28.0074 10.9926 27 9.75 27C8.50736 27 7.5 28.0074 7.5 29.25C7.5 30.4926 8.50736 31.5 9.75 31.5Z" stroke="#222222" stroke-width="2.25" stroke-linecap="round" stroke-linejoin="round"/>
<path d="M29.25 31.5C30.4926 31.5 31.5 30.4926 31.5 29.25C31.5 28.0074 30.4926 27 29.25 27C28.0074 27 27 28.0074 27 29.25C27 30.4926 28.0074 31.5 29.25 31.5Z" stroke="#222222" stroke-width="2.25" stroke-linecap="round" stroke-linejoin="round"/>
</svg>
